<mxfile host="65bd71144e">
    <diagram id="R8FaiNQZLPGbcXuUD_2L" name="Page-1">
        <mxGraphModel dx="1121" dy="790" grid="1" gridSize="10" guides="1" tooltips="1" connect="1" arrows="1" fold="1" page="1" pageScale="1" pageWidth="850" pageHeight="1100" math="0" shadow="0">
            <root>
                <mxCell id="0"/>
                <mxCell id="1" parent="0"/>
                <mxCell id="4" value="" style="edgeStyle=none;html=1;entryX=0.5;entryY=0;entryDx=0;entryDy=0;entryPerimeter=0;" edge="1" parent="1" source="2" target="3">
                    <mxGeometry relative="1" as="geometry"/>
                </mxCell>
                <mxCell id="2" value="Bắt đầu" style="ellipse;whiteSpace=wrap;html=1;" vertex="1" parent="1">
                    <mxGeometry x="247" y="123" width="110" height="60" as="geometry"/>
                </mxCell>
                <mxCell id="6" value="" style="edgeStyle=none;html=1;entryX=0.5;entryY=0;entryDx=0;entryDy=0;" edge="1" parent="1" source="3" target="5">
                    <mxGeometry relative="1" as="geometry">
                        <mxPoint x="303" y="353" as="targetPoint"/>
                    </mxGeometry>
                </mxCell>
                <mxCell id="3" value="Nhập số nguyên dương N" style="shape=parallelogram;perimeter=parallelogramPerimeter;whiteSpace=wrap;html=1;fixedSize=1;" vertex="1" parent="1">
                    <mxGeometry x="210" y="223" width="185" height="60" as="geometry"/>
                </mxCell>
                <mxCell id="8" value="" style="edgeStyle=none;html=1;entryX=0;entryY=0.5;entryDx=0;entryDy=0;" edge="1" parent="1" source="5" target="9">
                    <mxGeometry relative="1" as="geometry">
                        <mxPoint x="402.5" y="403" as="targetPoint"/>
                    </mxGeometry>
                </mxCell>
                <mxCell id="11" value="Yes" style="edgeLabel;html=1;align=center;verticalAlign=middle;resizable=0;points=[];" vertex="1" connectable="0" parent="8">
                    <mxGeometry x="-0.2275" relative="1" as="geometry">
                        <mxPoint y="-10" as="offset"/>
                    </mxGeometry>
                </mxCell>
                <mxCell id="12" style="edgeStyle=none;html=1;entryX=0.5;entryY=0;entryDx=0;entryDy=0;" edge="1" parent="1" source="5" target="13">
                    <mxGeometry relative="1" as="geometry">
                        <mxPoint x="303" y="493" as="targetPoint"/>
                    </mxGeometry>
                </mxCell>
                <mxCell id="16" value="No" style="edgeLabel;html=1;align=center;verticalAlign=middle;resizable=0;points=[];" vertex="1" connectable="0" parent="12">
                    <mxGeometry x="-0.325" y="1" relative="1" as="geometry">
                        <mxPoint x="-16" y="3" as="offset"/>
                    </mxGeometry>
                </mxCell>
                <mxCell id="5" value="N == 1" style="rhombus;whiteSpace=wrap;html=1;" vertex="1" parent="1">
                    <mxGeometry x="262.5" y="333" width="80" height="80" as="geometry"/>
                </mxCell>
                <mxCell id="39" style="edgeStyle=none;html=1;exitX=1;exitY=0.5;exitDx=0;exitDy=0;" edge="1" parent="1" source="9" target="40">
                    <mxGeometry relative="1" as="geometry">
                        <mxPoint x="710" y="373" as="targetPoint"/>
                        <Array as="points">
                            <mxPoint x="720" y="373"/>
                        </Array>
                    </mxGeometry>
                </mxCell>
                <mxCell id="9" value="&quot;N không là số nguyên tố&quot;" style="shape=parallelogram;perimeter=parallelogramPerimeter;whiteSpace=wrap;html=1;fixedSize=1;" vertex="1" parent="1">
                    <mxGeometry x="395" y="343" width="192" height="60" as="geometry"/>
                </mxCell>
                <mxCell id="15" style="edgeStyle=none;html=1;entryX=0.5;entryY=0;entryDx=0;entryDy=0;" edge="1" parent="1" source="13" target="14">
                    <mxGeometry relative="1" as="geometry">
                        <Array as="points">
                            <mxPoint x="490" y="503"/>
                        </Array>
                    </mxGeometry>
                </mxCell>
                <mxCell id="18" value="Yes" style="edgeLabel;html=1;align=center;verticalAlign=middle;resizable=0;points=[];" vertex="1" connectable="0" parent="15">
                    <mxGeometry x="-0.2275" y="-3" relative="1" as="geometry">
                        <mxPoint x="-60" y="-13" as="offset"/>
                    </mxGeometry>
                </mxCell>
                <mxCell id="24" value="Yes" style="edgeLabel;html=1;align=center;verticalAlign=middle;resizable=0;points=[];" vertex="1" connectable="0" parent="15">
                    <mxGeometry x="-0.2275" y="-3" relative="1" as="geometry">
                        <mxPoint x="-50" y="237" as="offset"/>
                    </mxGeometry>
                </mxCell>
                <mxCell id="17" style="edgeStyle=none;html=1;entryX=0.5;entryY=0;entryDx=0;entryDy=0;" edge="1" parent="1" source="13" target="20">
                    <mxGeometry relative="1" as="geometry">
                        <mxPoint x="303" y="633" as="targetPoint"/>
                    </mxGeometry>
                </mxCell>
                <mxCell id="19" value="No" style="edgeLabel;html=1;align=center;verticalAlign=middle;resizable=0;points=[];" vertex="1" connectable="0" parent="17">
                    <mxGeometry x="-0.4" y="2" relative="1" as="geometry">
                        <mxPoint x="-17" y="6" as="offset"/>
                    </mxGeometry>
                </mxCell>
                <mxCell id="13" value="N &amp;lt; 4" style="rhombus;whiteSpace=wrap;html=1;" vertex="1" parent="1">
                    <mxGeometry x="262" y="463" width="80" height="80" as="geometry"/>
                </mxCell>
                <mxCell id="41" style="edgeStyle=none;html=1;exitX=1;exitY=0.5;exitDx=0;exitDy=0;entryX=0;entryY=0.5;entryDx=0;entryDy=0;" edge="1" parent="1" source="14" target="40">
                    <mxGeometry relative="1" as="geometry"/>
                </mxCell>
                <mxCell id="14" value="&quot;N là số nguyên tố&quot;" style="shape=parallelogram;perimeter=parallelogramPerimeter;whiteSpace=wrap;html=1;fixedSize=1;" vertex="1" parent="1">
                    <mxGeometry x="395" y="583" width="190" height="60" as="geometry"/>
                </mxCell>
                <mxCell id="22" style="edgeStyle=none;html=1;startArrow=none;" edge="1" parent="1" source="21">
                    <mxGeometry relative="1" as="geometry">
                        <mxPoint x="303" y="763" as="targetPoint"/>
                    </mxGeometry>
                </mxCell>
                <mxCell id="35" style="edgeStyle=none;html=1;entryX=0.5;entryY=0;entryDx=0;entryDy=0;" edge="1" parent="1" source="20" target="21">
                    <mxGeometry relative="1" as="geometry"/>
                </mxCell>
                <mxCell id="20" value="i = 2" style="rounded=0;whiteSpace=wrap;html=1;" vertex="1" parent="1">
                    <mxGeometry x="244.5" y="583" width="120" height="60" as="geometry"/>
                </mxCell>
                <mxCell id="23" style="edgeStyle=none;html=1;entryX=0.5;entryY=1;entryDx=0;entryDy=0;exitX=1;exitY=0.5;exitDx=0;exitDy=0;" edge="1" parent="1" source="21" target="14">
                    <mxGeometry relative="1" as="geometry">
                        <mxPoint x="417" y="865.5" as="targetPoint"/>
                        <Array as="points">
                            <mxPoint x="490" y="756"/>
                        </Array>
                    </mxGeometry>
                </mxCell>
                <mxCell id="25" style="edgeStyle=none;html=1;entryX=0.5;entryY=0;entryDx=0;entryDy=0;" edge="1" parent="1" source="21" target="28">
                    <mxGeometry relative="1" as="geometry">
                        <mxPoint x="303" y="933" as="targetPoint"/>
                    </mxGeometry>
                </mxCell>
                <mxCell id="27" value="No" style="edgeLabel;html=1;align=center;verticalAlign=middle;resizable=0;points=[];" vertex="1" connectable="0" parent="25">
                    <mxGeometry x="-0.4769" y="1" relative="1" as="geometry">
                        <mxPoint x="-16" y="8" as="offset"/>
                    </mxGeometry>
                </mxCell>
                <mxCell id="29" style="edgeStyle=none;html=1;entryX=0;entryY=0.5;entryDx=0;entryDy=0;" edge="1" parent="1" source="28" target="32">
                    <mxGeometry relative="1" as="geometry">
                        <mxPoint x="427" y="1035.5" as="targetPoint"/>
                    </mxGeometry>
                </mxCell>
                <mxCell id="30" value="Yes" style="edgeLabel;html=1;align=center;verticalAlign=middle;resizable=0;points=[];" vertex="1" connectable="0" parent="29">
                    <mxGeometry x="-0.5833" y="3" relative="1" as="geometry">
                        <mxPoint x="3" y="-9" as="offset"/>
                    </mxGeometry>
                </mxCell>
                <mxCell id="33" style="edgeStyle=none;html=1;entryX=1;entryY=0.5;entryDx=0;entryDy=0;" edge="1" parent="1" source="28" target="36">
                    <mxGeometry relative="1" as="geometry">
                        <mxPoint x="303" y="1033" as="targetPoint"/>
                    </mxGeometry>
                </mxCell>
                <mxCell id="37" value="No" style="edgeLabel;html=1;align=center;verticalAlign=middle;resizable=0;points=[];" vertex="1" connectable="0" parent="33">
                    <mxGeometry x="0.3871" y="2" relative="1" as="geometry">
                        <mxPoint x="21" y="-14" as="offset"/>
                    </mxGeometry>
                </mxCell>
                <mxCell id="28" value="N % i == 0" style="rhombus;whiteSpace=wrap;html=1;" vertex="1" parent="1">
                    <mxGeometry x="252" y="873" width="105" height="105" as="geometry"/>
                </mxCell>
                <mxCell id="42" style="edgeStyle=none;html=1;exitX=1;exitY=0.5;exitDx=0;exitDy=0;entryX=0.5;entryY=1;entryDx=0;entryDy=0;" edge="1" parent="1" source="32" target="40">
                    <mxGeometry relative="1" as="geometry">
                        <Array as="points">
                            <mxPoint x="720" y="926"/>
                        </Array>
                    </mxGeometry>
                </mxCell>
                <mxCell id="32" value="&quot;N không là số nguyên tố&quot;" style="shape=parallelogram;perimeter=parallelogramPerimeter;whiteSpace=wrap;html=1;fixedSize=1;" vertex="1" parent="1">
                    <mxGeometry x="395" y="895.5" width="192" height="60" as="geometry"/>
                </mxCell>
                <mxCell id="21" value="i &amp;gt; sqrt(N)&amp;nbsp;" style="rhombus;whiteSpace=wrap;html=1;" vertex="1" parent="1">
                    <mxGeometry x="252" y="703" width="105" height="105" as="geometry"/>
                </mxCell>
                <mxCell id="38" style="edgeStyle=none;html=1;entryX=0;entryY=0.5;entryDx=0;entryDy=0;" edge="1" parent="1" source="36" target="21">
                    <mxGeometry relative="1" as="geometry">
                        <Array as="points">
                            <mxPoint x="130" y="756"/>
                        </Array>
                    </mxGeometry>
                </mxCell>
                <mxCell id="36" value="i = i + 1" style="rounded=0;whiteSpace=wrap;html=1;" vertex="1" parent="1">
                    <mxGeometry x="70" y="895.5" width="120" height="60" as="geometry"/>
                </mxCell>
                <mxCell id="40" value="Kết thúc" style="ellipse;whiteSpace=wrap;html=1;" vertex="1" parent="1">
                    <mxGeometry x="660" y="573" width="120" height="80" as="geometry"/>
                </mxCell>
            </root>
        </mxGraphModel>
    </diagram>
</mxfile>